<svg width="77" height="25" viewBox="0 0 77 25" fill="none" xmlns="http://www.w3.org/2000/svg">
<path d="M0.946563 24.4915V24.2515C3.01056 24.2515 3.15456 22.5475 3.15456 17.8195V7.16345C3.15456 2.43545 3.01056 0.731453 0.946563 0.731453V0.491455H3.82656C6.46656 0.491455 8.17056 0.0114527 10.9546 0.0114527C16.0666 0.0114527 18.9226 2.84345 18.9226 6.75545C18.9226 10.0435 16.2346 13.0195 12.0586 13.0195C9.80256 13.0195 8.26656 11.4835 7.25856 11.4835C6.97056 11.4835 6.56256 11.5555 6.56256 12.1075C6.56256 13.6675 11.6266 14.0035 13.5706 17.0275C15.4666 19.9795 17.6986 24.2515 20.4346 24.2515V24.4915H16.7626C15.6586 24.4915 14.9866 22.9795 11.1946 17.2915C8.86656 13.7875 6.32256 13.6915 6.32256 12.0595C6.32256 11.4835 6.73056 11.2435 7.16256 11.2435C8.57856 11.2435 9.68256 12.6115 11.9146 12.6115C14.9146 12.6115 16.8586 9.65945 16.8586 6.77945C16.8586 2.79545 14.0506 0.347454 9.58656 0.347454C7.81056 0.347454 6.65856 0.587454 5.19456 1.11545V17.8195C5.19456 22.5475 5.33856 24.2515 7.40256 24.2515V24.4915H0.946563ZM21.3763 0.731453V0.491455H27.8563V0.731453C25.7923 0.731453 25.6483 2.43545 25.6483 7.16345V17.8195C25.6483 22.4755 28.2883 24.7315 31.6963 24.7315C35.1043 24.7315 37.6483 22.4515 37.6483 17.8195V7.16345C37.6483 2.43545 37.5043 0.731453 35.4403 0.731453V0.491455H41.9203V0.731453C39.8563 0.731453 39.7123 2.43545 39.7123 7.16345V17.8195C39.7123 22.6195 36.1123 24.9715 31.6963 24.9715C27.2803 24.9715 23.5843 22.6675 23.5843 17.8195V7.16345C23.5843 2.43545 23.4403 0.731453 21.3763 0.731453ZM42.1406 0.731453V0.491455H48.8126V0.731453H48.2846C47.6126 0.731453 46.9886 1.04345 46.9886 2.00345C46.9886 3.63545 51.4286 10.9315 52.9166 13.8355C54.5726 10.6915 58.6046 3.41945 58.6046 1.83545C58.6046 0.971455 57.9326 0.731453 57.2606 0.731453H56.6366V0.491455H61.7726V0.731453C59.9486 0.731453 59.3726 2.53145 57.1886 6.70745C55.7006 9.49146 53.8046 12.7555 52.9886 14.3395V17.8195C52.9886 22.5475 53.1326 24.2515 55.1966 24.2515V24.4915H48.7166V24.2515C50.7806 24.2515 50.9246 22.5475 50.9246 17.8195V14.3395C50.1086 12.7555 48.2126 9.49146 46.7246 6.70745C44.5406 2.53145 43.9646 0.731453 42.1406 0.731453ZM56.47 20.2915C56.47 14.3875 66.07 12.1315 66.07 9.63545C66.07 9.17945 65.806 8.98745 65.494 8.98745C64.342 8.98745 63.622 11.5075 62.254 11.5075C61.582 11.5075 61.462 10.8595 61.702 10.2355C63.166 6.37145 64.054 3.99545 65.566 0.0114527H65.806L73.486 20.2915C74.542 22.9315 75.31 24.2515 76.774 24.2515V24.4915H68.902V24.2515C72.286 24.2515 72.166 22.3075 71.254 19.8835L68.278 12.0355C68.374 12.8035 68.422 13.7635 68.422 14.9155C68.422 20.7475 65.614 24.9715 60.838 24.9715C58.054 24.9715 56.47 22.7875 56.47 20.2915ZM58.51 19.8355C58.51 22.0915 59.926 23.8195 62.278 23.8195C66.286 23.8195 68.182 18.8995 68.182 14.9635C68.182 13.1875 68.11 11.8675 67.678 10.4515L64.774 2.79545L62.014 10.1395C61.702 10.9795 61.894 11.2675 62.278 11.2675C63.382 11.2675 64.27 8.74745 65.542 8.74745C65.998 8.74745 66.334 9.05945 66.334 9.68345C66.334 12.8995 58.51 13.9075 58.51 19.8355Z" fill="white"/>
</svg>
