<svg xmlns="http://www.w3.org/2000/svg" xmlns:xlink="http://www.w3.org/1999/xlink" width="290" zoomAndPan="magnify" viewBox="0 0 217.5 289.500005" height="386" preserveAspectRatio="xMidYMid meet" version="1.0"><defs><g/><clipPath id="9657d26419"><path d="M 0 0.0820312 L 217 0.0820312 L 217 288.917969 L 0 288.917969 Z M 0 0.0820312 " clip-rule="nonzero"/></clipPath></defs><g clip-path="url(#9657d26419)"><path fill="#ffffff" d="M 0 0.0820312 L 217 0.0820312 L 217 288.917969 L 0 288.917969 Z M 0 0.0820312 " fill-opacity="1" fill-rule="nonzero"/><path fill="#ffffff" d="M 0 0.0820312 L 217 0.0820312 L 217 288.917969 L 0 288.917969 Z M 0 0.0820312 " fill-opacity="1" fill-rule="nonzero"/></g><g fill="#000000" fill-opacity="1"><g transform="translate(0, 274.719579)"><g><path d="M 7.625 0 L 7.625 -2.546875 C 14.894531 -2.546875 20.179688 -4.742188 23.484375 -9.140625 C 26.785156 -13.546875 28.859375 -20.738281 29.703125 -30.71875 C 30.554688 -40.707031 30.984375 -54 30.984375 -70.59375 L 30.984375 -183.34375 C 30.984375 -200.101562 30.554688 -213.429688 29.703125 -223.328125 C 28.859375 -233.234375 26.785156 -240.382812 23.484375 -244.78125 C 20.179688 -249.1875 14.894531 -251.390625 7.625 -251.390625 L 7.625 -253.9375 L 38.09375 -253.9375 C 47.40625 -253.9375 55.910156 -254.359375 63.609375 -255.203125 C 71.316406 -256.054688 79.101562 -256.90625 86.96875 -257.75 C 94.84375 -258.59375 103.691406 -259.015625 113.515625 -259.015625 C 131.628906 -259.015625 146.945312 -255.925781 159.46875 -249.75 C 172 -243.570312 181.519531 -235.148438 188.03125 -224.484375 C 194.550781 -213.816406 197.8125 -201.539062 197.8125 -187.65625 C 197.8125 -176.144531 194.804688 -165.3125 188.796875 -155.15625 C 182.785156 -145 174.363281 -136.828125 163.53125 -130.640625 C 152.695312 -124.460938 139.914062 -121.375 125.1875 -121.375 C 119.257812 -121.375 113.753906 -122.175781 108.671875 -123.78125 C 103.597656 -125.394531 98.988281 -127.300781 94.84375 -129.5 C 90.695312 -131.707031 86.929688 -133.613281 83.546875 -135.21875 C 80.160156 -136.832031 77.113281 -137.640625 74.40625 -137.640625 C 72.882812 -137.640625 71.273438 -137.253906 69.578125 -136.484375 C 67.890625 -135.722656 67.046875 -133.90625 67.046875 -131.03125 C 67.046875 -127.8125 68.90625 -124.929688 72.625 -122.390625 C 76.351562 -119.859375 81.175781 -117.320312 87.09375 -114.78125 C 93.019531 -112.238281 99.367188 -109.441406 106.140625 -106.390625 C 112.910156 -103.347656 119.425781 -99.625 125.6875 -95.21875 C 131.957031 -90.820312 137.125 -85.40625 141.1875 -78.96875 C 146.269531 -71.1875 151.519531 -62.847656 156.9375 -53.953125 C 162.351562 -45.066406 168.066406 -36.726562 174.078125 -28.9375 C 180.085938 -21.15625 186.390625 -14.8125 192.984375 -9.90625 C 199.585938 -5 206.53125 -2.546875 213.8125 -2.546875 L 213.8125 0 L 174.96875 0 C 172.082031 0 169.242188 -1.179688 166.453125 -3.546875 C 163.660156 -5.921875 160.234375 -9.941406 156.171875 -15.609375 C 152.109375 -21.285156 146.898438 -29.03125 140.546875 -38.84375 C 134.203125 -48.664062 126.035156 -61.113281 116.046875 -76.1875 C 109.953125 -85.488281 103.859375 -92.847656 97.765625 -98.265625 C 91.671875 -103.691406 86.125 -108.050781 81.125 -111.34375 C 76.132812 -114.644531 72.113281 -117.773438 69.0625 -120.734375 C 66.019531 -123.703125 64.5 -127.304688 64.5 -131.546875 C 64.5 -134.585938 65.429688 -136.785156 67.296875 -138.140625 C 69.160156 -139.492188 71.191406 -140.171875 73.390625 -140.171875 C 77.109375 -140.171875 80.742188 -139.453125 84.296875 -138.015625 C 87.859375 -136.578125 91.539062 -134.882812 95.34375 -132.9375 C 99.15625 -130.988281 103.347656 -129.296875 107.921875 -127.859375 C 112.492188 -126.421875 117.742188 -125.703125 123.671875 -125.703125 C 131.628906 -125.703125 138.820312 -127.476562 145.25 -131.03125 C 151.6875 -134.582031 157.1875 -139.28125 161.75 -145.125 C 166.320312 -150.96875 169.835938 -157.570312 172.296875 -164.9375 C 174.753906 -172.300781 175.984375 -179.789062 175.984375 -187.40625 C 175.984375 -201.457031 172.847656 -213.5625 166.578125 -223.71875 C 160.316406 -233.875 151.429688 -241.703125 139.921875 -247.203125 C 128.410156 -252.710938 114.78125 -255.46875 99.03125 -255.46875 C 89.71875 -255.46875 81.59375 -254.832031 74.65625 -253.5625 C 67.71875 -252.289062 60.351562 -250.210938 52.5625 -247.328125 L 52.5625 -70.59375 C 52.5625 -54 52.984375 -40.707031 53.828125 -30.71875 C 54.679688 -20.738281 56.757812 -13.546875 60.0625 -9.140625 C 63.363281 -4.742188 68.648438 -2.546875 75.921875 -2.546875 L 75.921875 0 Z M 7.625 0 "/></g></g></g></svg>