<svg xmlns="http://www.w3.org/2000/svg" xmlns:xlink="http://www.w3.org/1999/xlink" width="290" zoomAndPan="magnify" viewBox="0 0 217.5 289.500005" height="386" preserveAspectRatio="xMidYMid meet" version="1.0"><defs><g/><clipPath id="a144f21f26"><path d="M 0 0.0820312 L 217 0.0820312 L 217 288.917969 L 0 288.917969 Z M 0 0.0820312 " clip-rule="nonzero"/></clipPath><clipPath id="f454c0446c"><path d="M 4 17 L 217 17 L 217 277 L 4 277 Z M 4 17 " clip-rule="nonzero"/></clipPath></defs><g clip-path="url(#a144f21f26)"><path fill="#ffffff" d="M 0 0.0820312 L 217 0.0820312 L 217 288.917969 L 0 288.917969 Z M 0 0.0820312 " fill-opacity="1" fill-rule="nonzero"/><path fill="#ffffff" d="M 0 0.0820312 L 217 0.0820312 L 217 288.917969 L 0 288.917969 Z M 0 0.0820312 " fill-opacity="1" fill-rule="nonzero"/></g><g clip-path="url(#f454c0446c)"><g fill="#000000" fill-opacity="1"><g transform="translate(-3.518386, 271.005237)"><g><path d="M 7.625 -251.390625 L 7.625 -253.9375 L 76.1875 -253.9375 L 76.1875 -251.390625 C 68.90625 -251.390625 63.613281 -249.1875 60.3125 -244.78125 C 57.007812 -240.382812 54.929688 -233.234375 54.078125 -223.328125 C 53.234375 -213.429688 52.8125 -200.101562 52.8125 -183.34375 L 52.8125 -70.59375 C 52.8125 -54.175781 55.644531 -40.546875 61.3125 -29.703125 C 66.988281 -18.867188 74.648438 -10.785156 84.296875 -5.453125 C 93.953125 -0.117188 104.789062 2.546875 116.8125 2.546875 C 128.832031 2.546875 139.582031 -0.160156 149.0625 -5.578125 C 158.539062 -11.003906 166.03125 -19.132812 171.53125 -29.96875 C 177.03125 -40.800781 179.78125 -54.34375 179.78125 -70.59375 L 179.78125 -183.34375 C 179.78125 -200.101562 179.359375 -213.429688 178.515625 -223.328125 C 177.671875 -233.234375 175.597656 -240.382812 172.296875 -244.78125 C 168.992188 -249.1875 163.703125 -251.390625 156.421875 -251.390625 L 156.421875 -253.9375 L 224.984375 -253.9375 L 224.984375 -251.390625 C 217.703125 -251.390625 212.410156 -249.1875 209.109375 -244.78125 C 205.816406 -240.382812 203.742188 -233.234375 202.890625 -223.328125 C 202.046875 -213.429688 201.625 -200.101562 201.625 -183.34375 L 201.625 -70.59375 C 201.625 -53.664062 197.8125 -39.613281 190.1875 -28.4375 C 182.570312 -17.269531 172.332031 -8.890625 159.46875 -3.296875 C 146.601562 2.285156 132.382812 5.078125 116.8125 5.078125 C 101.238281 5.078125 86.929688 2.328125 73.890625 -3.171875 C 60.859375 -8.671875 50.445312 -17.007812 42.65625 -28.1875 C 34.875 -39.363281 30.984375 -53.5 30.984375 -70.59375 L 30.984375 -183.34375 C 30.984375 -200.101562 30.554688 -213.429688 29.703125 -223.328125 C 28.859375 -233.234375 26.785156 -240.382812 23.484375 -244.78125 C 20.179688 -249.1875 14.894531 -251.390625 7.625 -251.390625 Z M 7.625 -251.390625 "/></g></g></g></g></svg>