<svg xmlns="http://www.w3.org/2000/svg" xmlns:xlink="http://www.w3.org/1999/xlink" width="290" zoomAndPan="magnify" viewBox="0 0 217.5 289.500005" height="386" preserveAspectRatio="xMidYMid meet" version="1.0"><defs><g/><clipPath id="f6b8d4a982"><path d="M 0 0.0820312 L 217 0.0820312 L 217 288.917969 L 0 288.917969 Z M 0 0.0820312 " clip-rule="nonzero"/></clipPath></defs><g clip-path="url(#f6b8d4a982)"><path fill="#ffffff" d="M 0 0.0820312 L 217 0.0820312 L 217 288.917969 L 0 288.917969 Z M 0 0.0820312 " fill-opacity="1" fill-rule="nonzero"/><path fill="#ffffff" d="M 0 0.0820312 L 217 0.0820312 L 217 288.917969 L 0 288.917969 Z M 0 0.0820312 " fill-opacity="1" fill-rule="nonzero"/></g><g fill="#000000" fill-opacity="1"><g transform="translate(4.623093, 274.719628)"><g><path d="M 0 -251.390625 L 0 -253.9375 L 70.59375 -253.9375 L 70.59375 -251.390625 L 65.015625 -251.390625 C 61.453125 -251.390625 58.273438 -250.414062 55.484375 -248.46875 C 52.691406 -246.53125 51.296875 -243.019531 51.296875 -237.9375 C 51.296875 -235.0625 52.4375 -230.703125 54.71875 -224.859375 C 57.007812 -219.015625 60.097656 -212.285156 63.984375 -204.671875 C 67.878906 -197.054688 72.15625 -188.972656 76.8125 -180.421875 C 81.46875 -171.867188 86.125 -163.398438 90.78125 -155.015625 C 95.4375 -146.640625 99.835938 -138.769531 103.984375 -131.40625 C 108.128906 -124.039062 111.472656 -117.820312 114.015625 -112.75 C 117.566406 -119.351562 121.882812 -127.394531 126.96875 -136.875 C 132.050781 -146.351562 137.300781 -156.335938 142.71875 -166.828125 C 148.132812 -177.328125 153.253906 -187.484375 158.078125 -197.296875 C 162.898438 -207.117188 166.789062 -215.796875 169.75 -223.328125 C 172.71875 -230.867188 174.203125 -236.332031 174.203125 -239.71875 C 174.203125 -244.289062 172.71875 -247.378906 169.75 -248.984375 C 166.789062 -250.585938 163.535156 -251.390625 159.984375 -251.390625 L 153.375 -251.390625 L 153.375 -253.9375 L 207.71875 -253.9375 L 207.71875 -251.390625 C 201.289062 -251.390625 195.914062 -249.1875 191.59375 -244.78125 C 187.28125 -240.382812 182.753906 -233.53125 178.015625 -224.21875 C 173.273438 -214.914062 167.007812 -202.898438 159.21875 -188.171875 C 153.96875 -178.347656 148.460938 -168.269531 142.703125 -157.9375 C 136.953125 -147.613281 131.578125 -138.007812 126.578125 -129.125 C 121.585938 -120.238281 117.65625 -113.003906 114.78125 -107.421875 L 114.78125 -70.59375 C 114.78125 -54 115.203125 -40.707031 116.046875 -30.71875 C 116.890625 -20.738281 118.960938 -13.546875 122.265625 -9.140625 C 125.566406 -4.742188 130.859375 -2.546875 138.140625 -2.546875 L 138.140625 0 L 69.578125 0 L 69.578125 -2.546875 C 76.859375 -2.546875 82.148438 -4.742188 85.453125 -9.140625 C 88.753906 -13.546875 90.828125 -20.738281 91.671875 -30.71875 C 92.515625 -40.707031 92.9375 -54 92.9375 -70.59375 L 92.9375 -107.421875 C 90.0625 -113.003906 86.125 -120.238281 81.125 -129.125 C 76.132812 -138.007812 70.757812 -147.613281 65 -157.9375 C 59.25 -168.269531 53.75 -178.347656 48.5 -188.171875 C 40.882812 -202.898438 34.660156 -214.914062 29.828125 -224.21875 C 25.003906 -233.53125 20.4375 -240.382812 16.125 -244.78125 C 11.8125 -249.1875 6.4375 -251.390625 0 -251.390625 Z M 0 -251.390625 "/></g></g></g></svg>