<svg xmlns="http://www.w3.org/2000/svg" xmlns:xlink="http://www.w3.org/1999/xlink" width="290" zoomAndPan="magnify" viewBox="0 0 217.5 289.500005" height="386" preserveAspectRatio="xMidYMid meet" version="1.0"><defs><g/><clipPath id="7bc18c7ce2"><path d="M 0 0.0820312 L 217 0.0820312 L 217 288.917969 L 0 288.917969 Z M 0 0.0820312 " clip-rule="nonzero"/></clipPath></defs><g clip-path="url(#7bc18c7ce2)"><path fill="#ffffff" d="M 0 0.0820312 L 217 0.0820312 L 217 288.917969 L 0 288.917969 Z M 0 0.0820312 " fill-opacity="1" fill-rule="nonzero"/><path fill="#ffffff" d="M 0 0.0820312 L 217 0.0820312 L 217 288.917969 L 0 288.917969 Z M 0 0.0820312 " fill-opacity="1" fill-rule="nonzero"/></g><g fill="#000000" fill-opacity="1"><g transform="translate(-6.031518, 274.719628)"><g><path d="M 7.625 -44.4375 C 7.625 -54.9375 10.078125 -64.375 14.984375 -72.75 C 19.890625 -81.132812 26.191406 -88.753906 33.890625 -95.609375 C 41.597656 -102.460938 49.769531 -108.722656 58.40625 -114.390625 C 67.039062 -120.066406 75.207031 -125.316406 82.90625 -130.140625 C 90.613281 -134.960938 96.921875 -139.570312 101.828125 -143.96875 C 106.734375 -148.375 109.1875 -152.78125 109.1875 -157.1875 C 109.1875 -159.5625 108.59375 -161.296875 107.40625 -162.390625 C 106.226562 -163.492188 104.789062 -164.046875 103.09375 -164.046875 C 100.050781 -164.046875 97.21875 -162.691406 94.59375 -159.984375 C 91.96875 -157.273438 89.382812 -154.179688 86.84375 -150.703125 C 84.300781 -147.234375 81.550781 -144.144531 78.59375 -141.4375 C 75.632812 -138.726562 72.375 -137.375 68.8125 -137.375 C 65.257812 -137.375 63.101562 -138.8125 62.34375 -141.6875 C 61.582031 -144.570312 61.789062 -147.625 62.96875 -150.84375 C 66.863281 -161 70.421875 -170.4375 73.640625 -179.15625 C 76.859375 -187.875 80.03125 -196.335938 83.15625 -204.546875 C 86.289062 -212.753906 89.507812 -221.257812 92.8125 -230.0625 C 96.113281 -238.863281 99.796875 -248.515625 103.859375 -259.015625 L 106.40625 -259.015625 L 187.65625 -44.4375 C 193.25 -30.550781 198.5 -20.097656 203.40625 -13.078125 C 208.3125 -6.054688 214.660156 -2.546875 222.453125 -2.546875 L 222.453125 0 L 139.15625 0 L 139.15625 -2.546875 C 148.125 -2.546875 154.9375 -3.726562 159.59375 -6.09375 C 164.25 -8.46875 167.253906 -11.769531 168.609375 -16 C 169.960938 -20.226562 170.128906 -25.132812 169.109375 -30.71875 C 168.097656 -36.3125 166.410156 -42.320312 164.046875 -48.75 L 132.5625 -131.796875 C 133.570312 -123.671875 134.078125 -113.515625 134.078125 -101.328125 C 134.078125 -80.835938 130.898438 -62.550781 124.546875 -46.46875 C 118.203125 -30.382812 109.0625 -17.769531 97.125 -8.625 C 85.195312 0.507812 70.765625 5.078125 53.828125 5.078125 C 44.015625 5.078125 35.675781 2.789062 28.8125 -1.78125 C 21.957031 -6.351562 16.710938 -12.40625 13.078125 -19.9375 C 9.441406 -27.46875 7.625 -35.632812 7.625 -44.4375 Z M 29.203125 -49.265625 C 29.203125 -37.410156 32.753906 -27.421875 39.859375 -19.296875 C 46.972656 -11.171875 56.710938 -7.109375 69.078125 -7.109375 C 79.734375 -7.109375 88.957031 -9.984375 96.75 -15.734375 C 104.539062 -21.492188 111.015625 -29.03125 116.171875 -38.34375 C 121.335938 -47.65625 125.191406 -57.8125 127.734375 -68.8125 C 130.273438 -79.820312 131.546875 -90.488281 131.546875 -100.8125 C 131.546875 -110.289062 131.25 -118.753906 130.65625 -126.203125 C 130.0625 -133.648438 128.578125 -141.097656 126.203125 -148.546875 L 95.484375 -229.5625 L 66.28125 -151.859375 C 64.582031 -147.453125 64.113281 -144.359375 64.875 -142.578125 C 65.644531 -140.804688 67.046875 -139.921875 69.078125 -139.921875 C 71.953125 -139.921875 74.742188 -141.273438 77.453125 -143.984375 C 80.160156 -146.691406 82.867188 -149.78125 85.578125 -153.25 C 88.285156 -156.71875 91.117188 -159.804688 94.078125 -162.515625 C 97.046875 -165.222656 100.222656 -166.578125 103.609375 -166.578125 C 105.972656 -166.578125 107.957031 -165.773438 109.5625 -164.171875 C 111.175781 -162.566406 111.984375 -160.066406 111.984375 -156.671875 C 111.984375 -151.085938 109.992188 -145.96875 106.015625 -141.3125 C 102.035156 -136.65625 96.914062 -132.125 90.65625 -127.71875 C 84.394531 -123.320312 77.707031 -118.671875 70.59375 -113.765625 C 63.476562 -108.859375 56.789062 -103.398438 50.53125 -97.390625 C 44.269531 -91.378906 39.148438 -84.476562 35.171875 -76.6875 C 31.191406 -68.90625 29.203125 -59.765625 29.203125 -49.265625 Z M 29.203125 -49.265625 "/></g></g></g></svg>